<mxfile host="app.diagrams.net" agent="Mozilla/5.0 (Windows NT 10.0; Win64; x64) AppleWebKit/537.36 (KHTML, like Gecko) Chrome/138.0.0.0 Safari/537.36" version="28.0.3">
  <diagram name="Page-1" id="BcEKtUA5P6ZAYUJ8KWXm">
    <mxGraphModel dx="1846" dy="598" grid="1" gridSize="10" guides="1" tooltips="1" connect="1" arrows="1" fold="1" page="1" pageScale="1" pageWidth="827" pageHeight="1169" math="0" shadow="0">
      <root>
        <mxCell id="0" />
        <mxCell id="1" parent="0" />
        <mxCell id="hxKvOkTSUKwzt0BQpjmr-1" value="ทบทวนสัญลักษณ์" style="swimlane;fontFamily=Sarabun;fontSource=https%3A%2F%2Ffonts.googleapis.com%2Fcss%3Ffamily%3DSarabun;" parent="1" vertex="1">
          <mxGeometry x="-720" y="20" width="640" height="290" as="geometry" />
        </mxCell>
        <mxCell id="hxKvOkTSUKwzt0BQpjmr-2" value="&lt;font data-font-src=&quot;https://fonts.googleapis.com/css?family=Sarabun&quot; face=&quot;Sarabun&quot;&gt;เริ่มต้น&lt;/font&gt;" style="ellipse;whiteSpace=wrap;html=1;" parent="hxKvOkTSUKwzt0BQpjmr-1" vertex="1">
          <mxGeometry x="20" y="40" width="130" height="30" as="geometry" />
        </mxCell>
        <mxCell id="hxKvOkTSUKwzt0BQpjmr-3" value="" style="endArrow=classic;html=1;rounded=0;" parent="hxKvOkTSUKwzt0BQpjmr-1" edge="1">
          <mxGeometry width="50" height="50" relative="1" as="geometry">
            <mxPoint x="84.5" y="70" as="sourcePoint" />
            <mxPoint x="84.5" y="120" as="targetPoint" />
          </mxGeometry>
        </mxCell>
        <mxCell id="hxKvOkTSUKwzt0BQpjmr-4" value="&lt;font face=&quot;Sarabun&quot;&gt;สิ้นสุด&lt;/font&gt;" style="ellipse;whiteSpace=wrap;html=1;" parent="hxKvOkTSUKwzt0BQpjmr-1" vertex="1">
          <mxGeometry x="150" y="90" width="130" height="30" as="geometry" />
        </mxCell>
        <mxCell id="hxKvOkTSUKwzt0BQpjmr-5" value="" style="endArrow=classic;html=1;rounded=0;" parent="hxKvOkTSUKwzt0BQpjmr-1" edge="1">
          <mxGeometry width="50" height="50" relative="1" as="geometry">
            <mxPoint x="214.5" y="40" as="sourcePoint" />
            <mxPoint x="214.5" y="90" as="targetPoint" />
          </mxGeometry>
        </mxCell>
        <mxCell id="hxKvOkTSUKwzt0BQpjmr-6" value="กระบวนการ" style="rounded=0;whiteSpace=wrap;html=1;fontFamily=Sarabun;fontSource=https%3A%2F%2Ffonts.googleapis.com%2Fcss%3Ffamily%3DSarabun;" parent="hxKvOkTSUKwzt0BQpjmr-1" vertex="1">
          <mxGeometry x="320" y="70" width="120" height="30" as="geometry" />
        </mxCell>
        <mxCell id="hxKvOkTSUKwzt0BQpjmr-7" value="" style="endArrow=classic;html=1;rounded=0;" parent="hxKvOkTSUKwzt0BQpjmr-1" edge="1">
          <mxGeometry width="50" height="50" relative="1" as="geometry">
            <mxPoint x="379" y="40" as="sourcePoint" />
            <mxPoint x="379.5" y="70" as="targetPoint" />
          </mxGeometry>
        </mxCell>
        <mxCell id="hxKvOkTSUKwzt0BQpjmr-8" value="" style="endArrow=classic;html=1;rounded=0;" parent="hxKvOkTSUKwzt0BQpjmr-1" edge="1">
          <mxGeometry width="50" height="50" relative="1" as="geometry">
            <mxPoint x="379.75" y="100" as="sourcePoint" />
            <mxPoint x="380.25" y="130" as="targetPoint" />
          </mxGeometry>
        </mxCell>
        <mxCell id="hxKvOkTSUKwzt0BQpjmr-9" value="ประโยคเงื่อนไข" style="rhombus;whiteSpace=wrap;html=1;fontFamily=Sarabun;fontSource=https%3A%2F%2Ffonts.googleapis.com%2Fcss%3Ffamily%3DSarabun;" parent="hxKvOkTSUKwzt0BQpjmr-1" vertex="1">
          <mxGeometry x="490" y="60" width="100" height="60" as="geometry" />
        </mxCell>
        <mxCell id="hxKvOkTSUKwzt0BQpjmr-10" value="" style="endArrow=classic;html=1;rounded=0;" parent="hxKvOkTSUKwzt0BQpjmr-1" edge="1">
          <mxGeometry width="50" height="50" relative="1" as="geometry">
            <mxPoint x="539.71" y="30" as="sourcePoint" />
            <mxPoint x="540.21" y="60" as="targetPoint" />
          </mxGeometry>
        </mxCell>
        <mxCell id="hxKvOkTSUKwzt0BQpjmr-11" value="" style="endArrow=classic;html=1;rounded=0;" parent="hxKvOkTSUKwzt0BQpjmr-1" edge="1">
          <mxGeometry width="50" height="50" relative="1" as="geometry">
            <mxPoint x="539.71" y="120" as="sourcePoint" />
            <mxPoint x="540" y="175" as="targetPoint" />
          </mxGeometry>
        </mxCell>
        <mxCell id="hxKvOkTSUKwzt0BQpjmr-12" value="จริง" style="edgeLabel;html=1;align=center;verticalAlign=middle;resizable=0;points=[];fontFamily=Sarabun;fontSource=https%3A%2F%2Ffonts.googleapis.com%2Fcss%3Ffamily%3DSarabun;" parent="hxKvOkTSUKwzt0BQpjmr-11" vertex="1" connectable="0">
          <mxGeometry x="-0.4142" y="-1" relative="1" as="geometry">
            <mxPoint as="offset" />
          </mxGeometry>
        </mxCell>
        <mxCell id="hxKvOkTSUKwzt0BQpjmr-13" value="" style="endArrow=classic;html=1;rounded=0;exitX=1;exitY=0.5;exitDx=0;exitDy=0;" parent="hxKvOkTSUKwzt0BQpjmr-1" source="hxKvOkTSUKwzt0BQpjmr-9" edge="1">
          <mxGeometry width="50" height="50" relative="1" as="geometry">
            <mxPoint x="620" y="95" as="sourcePoint" />
            <mxPoint x="610" y="175" as="targetPoint" />
            <Array as="points">
              <mxPoint x="610" y="90" />
            </Array>
          </mxGeometry>
        </mxCell>
        <mxCell id="hxKvOkTSUKwzt0BQpjmr-14" value="&lt;font data-font-src=&quot;https://fonts.googleapis.com/css?family=Sarabun&quot; face=&quot;Sarabun&quot;&gt;เท็จ&lt;/font&gt;" style="edgeLabel;html=1;align=center;verticalAlign=middle;resizable=0;points=[];" parent="hxKvOkTSUKwzt0BQpjmr-13" vertex="1" connectable="0">
          <mxGeometry x="-0.0019" y="-2" relative="1" as="geometry">
            <mxPoint as="offset" />
          </mxGeometry>
        </mxCell>
        <mxCell id="hxKvOkTSUKwzt0BQpjmr-15" value="&lt;font data-font-src=&quot;https://fonts.googleapis.com/css?family=Sarabun&quot; face=&quot;Sarabun&quot;&gt;ฟังก์ชัน/โมดูล&lt;/font&gt;" style="shape=process;whiteSpace=wrap;html=1;backgroundOutline=1;" parent="hxKvOkTSUKwzt0BQpjmr-1" vertex="1">
          <mxGeometry x="25" y="180" width="120" height="30" as="geometry" />
        </mxCell>
        <mxCell id="hxKvOkTSUKwzt0BQpjmr-16" value="" style="endArrow=classic;html=1;rounded=0;" parent="hxKvOkTSUKwzt0BQpjmr-1" edge="1">
          <mxGeometry width="50" height="50" relative="1" as="geometry">
            <mxPoint x="84.70999999999998" y="150" as="sourcePoint" />
            <mxPoint x="85.20999999999998" y="180" as="targetPoint" />
          </mxGeometry>
        </mxCell>
        <mxCell id="hxKvOkTSUKwzt0BQpjmr-17" value="" style="endArrow=classic;html=1;rounded=0;" parent="hxKvOkTSUKwzt0BQpjmr-1" edge="1">
          <mxGeometry width="50" height="50" relative="1" as="geometry">
            <mxPoint x="84.70999999999998" y="210" as="sourcePoint" />
            <mxPoint x="85.20999999999998" y="240" as="targetPoint" />
          </mxGeometry>
        </mxCell>
        <mxCell id="hxKvOkTSUKwzt0BQpjmr-18" value="" style="strokeWidth=2;html=1;shape=mxgraph.flowchart.start_2;whiteSpace=wrap;" parent="hxKvOkTSUKwzt0BQpjmr-1" vertex="1">
          <mxGeometry x="205" y="185" width="20" height="20" as="geometry" />
        </mxCell>
        <mxCell id="hxKvOkTSUKwzt0BQpjmr-19" value="" style="endArrow=classic;html=1;rounded=0;" parent="hxKvOkTSUKwzt0BQpjmr-1" edge="1">
          <mxGeometry width="50" height="50" relative="1" as="geometry">
            <mxPoint x="214.70999999999998" y="155" as="sourcePoint" />
            <mxPoint x="215.20999999999998" y="185" as="targetPoint" />
          </mxGeometry>
        </mxCell>
        <mxCell id="hxKvOkTSUKwzt0BQpjmr-20" value="" style="endArrow=classic;html=1;rounded=0;entryX=0;entryY=0.5;entryDx=0;entryDy=0;entryPerimeter=0;" parent="hxKvOkTSUKwzt0BQpjmr-1" target="hxKvOkTSUKwzt0BQpjmr-18" edge="1">
          <mxGeometry width="50" height="50" relative="1" as="geometry">
            <mxPoint x="189.99999999999997" y="155" as="sourcePoint" />
            <mxPoint x="190.49999999999997" y="185" as="targetPoint" />
            <Array as="points">
              <mxPoint x="190" y="180" />
            </Array>
          </mxGeometry>
        </mxCell>
        <mxCell id="hxKvOkTSUKwzt0BQpjmr-21" value="" style="endArrow=classic;html=1;rounded=0;entryX=1;entryY=0.5;entryDx=0;entryDy=0;entryPerimeter=0;" parent="hxKvOkTSUKwzt0BQpjmr-1" target="hxKvOkTSUKwzt0BQpjmr-18" edge="1">
          <mxGeometry width="50" height="50" relative="1" as="geometry">
            <mxPoint x="239.99999999999997" y="155" as="sourcePoint" />
            <mxPoint x="240.49999999999997" y="185" as="targetPoint" />
            <Array as="points">
              <mxPoint x="240" y="180" />
            </Array>
          </mxGeometry>
        </mxCell>
        <mxCell id="hxKvOkTSUKwzt0BQpjmr-22" value="" style="endArrow=classic;html=1;rounded=0;" parent="hxKvOkTSUKwzt0BQpjmr-1" edge="1">
          <mxGeometry width="50" height="50" relative="1" as="geometry">
            <mxPoint x="214.70999999999998" y="205" as="sourcePoint" />
            <mxPoint x="215.20999999999998" y="235" as="targetPoint" />
          </mxGeometry>
        </mxCell>
        <mxCell id="hxKvOkTSUKwzt0BQpjmr-23" value="&lt;font data-font-src=&quot;https://fonts.googleapis.com/css?family=Sarabun&quot; face=&quot;Sarabun&quot;&gt;ตัวเชื่อม&lt;/font&gt;" style="text;html=1;align=center;verticalAlign=middle;resizable=0;points=[];autosize=1;strokeColor=none;fillColor=none;" parent="hxKvOkTSUKwzt0BQpjmr-1" vertex="1">
          <mxGeometry x="220" y="190" width="60" height="30" as="geometry" />
        </mxCell>
        <mxCell id="hxKvOkTSUKwzt0BQpjmr-24" value="" style="endArrow=classic;html=1;rounded=0;" parent="hxKvOkTSUKwzt0BQpjmr-1" edge="1">
          <mxGeometry width="50" height="50" relative="1" as="geometry">
            <mxPoint x="353.71" y="165" as="sourcePoint" />
            <mxPoint x="354.21" y="195" as="targetPoint" />
          </mxGeometry>
        </mxCell>
        <mxCell id="hxKvOkTSUKwzt0BQpjmr-25" value="" style="verticalLabelPosition=bottom;verticalAlign=top;html=1;shape=offPageConnector;rounded=0;size=0.5;" parent="hxKvOkTSUKwzt0BQpjmr-1" vertex="1">
          <mxGeometry x="339" y="195" width="30" height="30" as="geometry" />
        </mxCell>
        <mxCell id="hxKvOkTSUKwzt0BQpjmr-26" value="" style="endArrow=classic;html=1;rounded=0;" parent="hxKvOkTSUKwzt0BQpjmr-1" edge="1">
          <mxGeometry width="50" height="50" relative="1" as="geometry">
            <mxPoint x="405.71" y="195" as="sourcePoint" />
            <mxPoint x="406.21" y="225" as="targetPoint" />
          </mxGeometry>
        </mxCell>
        <mxCell id="hxKvOkTSUKwzt0BQpjmr-27" value="" style="verticalLabelPosition=bottom;verticalAlign=top;html=1;shape=offPageConnector;rounded=0;size=0.5;" parent="hxKvOkTSUKwzt0BQpjmr-1" vertex="1">
          <mxGeometry x="391" y="165" width="30" height="30" as="geometry" />
        </mxCell>
        <mxCell id="hxKvOkTSUKwzt0BQpjmr-28" value="หน้าต่อไป" style="text;html=1;align=center;verticalAlign=middle;resizable=0;points=[];autosize=1;strokeColor=none;fillColor=none;fontFamily=Sarabun;fontSource=https%3A%2F%2Ffonts.googleapis.com%2Fcss%3Ffamily%3DSarabun;" parent="hxKvOkTSUKwzt0BQpjmr-1" vertex="1">
          <mxGeometry x="345" y="220" width="70" height="30" as="geometry" />
        </mxCell>
        <mxCell id="hxKvOkTSUKwzt0BQpjmr-29" value="ก" style="text;html=1;align=center;verticalAlign=middle;resizable=0;points=[];autosize=1;strokeColor=none;fillColor=none;fontFamily=Sarabun;fontSource=https%3A%2F%2Ffonts.googleapis.com%2Fcss%3Ffamily%3DSarabun;" parent="hxKvOkTSUKwzt0BQpjmr-1" vertex="1">
          <mxGeometry x="339" y="190" width="30" height="30" as="geometry" />
        </mxCell>
        <mxCell id="hxKvOkTSUKwzt0BQpjmr-30" value="ก" style="text;html=1;align=center;verticalAlign=middle;resizable=0;points=[];autosize=1;strokeColor=none;fillColor=none;fontFamily=Sarabun;fontSource=https%3A%2F%2Ffonts.googleapis.com%2Fcss%3Ffamily%3DSarabun;" parent="hxKvOkTSUKwzt0BQpjmr-1" vertex="1">
          <mxGeometry x="391" y="160" width="30" height="30" as="geometry" />
        </mxCell>
        <mxCell id="hxKvOkTSUKwzt0BQpjmr-31" value="แสดงผล/รับค่า" style="shape=parallelogram;perimeter=parallelogramPerimeter;whiteSpace=wrap;html=1;fixedSize=1;fontFamily=Sarabun;fontSource=https%3A%2F%2Ffonts.googleapis.com%2Fcss%3Ffamily%3DSarabun;" parent="hxKvOkTSUKwzt0BQpjmr-1" vertex="1">
          <mxGeometry x="450" y="210" width="120" height="30" as="geometry" />
        </mxCell>
        <mxCell id="hxKvOkTSUKwzt0BQpjmr-32" value="" style="endArrow=classic;html=1;rounded=0;" parent="hxKvOkTSUKwzt0BQpjmr-1" edge="1">
          <mxGeometry width="50" height="50" relative="1" as="geometry">
            <mxPoint x="509.71" y="180" as="sourcePoint" />
            <mxPoint x="510.21" y="210" as="targetPoint" />
          </mxGeometry>
        </mxCell>
        <mxCell id="hxKvOkTSUKwzt0BQpjmr-33" value="" style="endArrow=classic;html=1;rounded=0;" parent="hxKvOkTSUKwzt0BQpjmr-1" edge="1">
          <mxGeometry width="50" height="50" relative="1" as="geometry">
            <mxPoint x="509.71" y="240" as="sourcePoint" />
            <mxPoint x="510.21" y="270" as="targetPoint" />
          </mxGeometry>
        </mxCell>
        <mxCell id="hxKvOkTSUKwzt0BQpjmr-34" value="แก้ไขโจทย์ปัญหา" style="swimlane;fontFamily=Sarabun;fontSource=https%3A%2F%2Ffonts.googleapis.com%2Fcss%3Ffamily%3DSarabun;" parent="1" vertex="1">
          <mxGeometry x="-720" y="632" width="640" height="3538" as="geometry" />
        </mxCell>
        <mxCell id="hxKvOkTSUKwzt0BQpjmr-35" value="&lt;font data-font-src=&quot;https://fonts.googleapis.com/css?family=Sarabun&quot; face=&quot;Sarabun&quot;&gt;เริ่มต้น&lt;/font&gt;" style="ellipse;whiteSpace=wrap;html=1;" parent="hxKvOkTSUKwzt0BQpjmr-34" vertex="1">
          <mxGeometry x="255" y="40" width="130" height="30" as="geometry" />
        </mxCell>
        <mxCell id="hxKvOkTSUKwzt0BQpjmr-39" value="" style="endArrow=classic;html=1;rounded=0;" parent="hxKvOkTSUKwzt0BQpjmr-34" edge="1">
          <mxGeometry width="50" height="50" relative="1" as="geometry">
            <mxPoint x="320" y="110" as="sourcePoint" />
            <mxPoint x="319.5" y="130" as="targetPoint" />
          </mxGeometry>
        </mxCell>
        <mxCell id="hxKvOkTSUKwzt0BQpjmr-44" value="&lt;div&gt;&lt;span style=&quot;font-size: 14px; text-align: left; text-wrap-mode: nowrap;&quot;&gt;กำหนดค่าของประเภทน้ำ&lt;/span&gt;&lt;/div&gt;&lt;div&gt;&lt;span style=&quot;font-size: 14px; text-align: left; text-wrap-mode: nowrap;&quot;&gt;โค้ก กระป๋องละ 10 บาท&lt;/span&gt;&lt;/div&gt;&lt;div&gt;&lt;span style=&quot;font-size: 14px; text-align: left; text-wrap-mode: nowrap;&quot;&gt;น้ำเขียว กระป๋องละ 12 บาท&lt;/span&gt;&lt;/div&gt;&lt;div&gt;&lt;span style=&quot;font-size: 14px; text-align: left; text-wrap-mode: nowrap;&quot;&gt;อเมริกาโน่ 30 บาท&lt;/span&gt;&lt;/div&gt;&lt;div&gt;&lt;span style=&quot;font-size: 14px; text-align: left; text-wrap-mode: nowrap;&quot;&gt;ลาเต้ หวานเจี๊ยบ 35 บาท&lt;/span&gt;&lt;/div&gt;" style="rounded=0;whiteSpace=wrap;html=1;fontFamily=Sarabun;fontSource=https%3A%2F%2Ffonts.googleapis.com%2Fcss%3Ffamily%3DSarabun;" parent="hxKvOkTSUKwzt0BQpjmr-34" vertex="1">
          <mxGeometry x="188.75" y="370" width="260" height="140" as="geometry" />
        </mxCell>
        <mxCell id="hxKvOkTSUKwzt0BQpjmr-47" value="" style="endArrow=classic;html=1;rounded=0;" parent="hxKvOkTSUKwzt0BQpjmr-34" edge="1">
          <mxGeometry width="50" height="50" relative="1" as="geometry">
            <mxPoint x="292.46" y="535" as="sourcePoint" />
            <mxPoint x="292.96" y="565" as="targetPoint" />
          </mxGeometry>
        </mxCell>
        <mxCell id="hxKvOkTSUKwzt0BQpjmr-48" value="" style="verticalLabelPosition=bottom;verticalAlign=top;html=1;shape=offPageConnector;rounded=0;size=0.5;" parent="hxKvOkTSUKwzt0BQpjmr-34" vertex="1">
          <mxGeometry x="277.75" y="565" width="30" height="30" as="geometry" />
        </mxCell>
        <mxCell id="hxKvOkTSUKwzt0BQpjmr-49" value="" style="endArrow=classic;html=1;rounded=0;" parent="hxKvOkTSUKwzt0BQpjmr-34" edge="1">
          <mxGeometry width="50" height="50" relative="1" as="geometry">
            <mxPoint x="344.46" y="565" as="sourcePoint" />
            <mxPoint x="344.96" y="595" as="targetPoint" />
          </mxGeometry>
        </mxCell>
        <mxCell id="hxKvOkTSUKwzt0BQpjmr-50" value="" style="verticalLabelPosition=bottom;verticalAlign=top;html=1;shape=offPageConnector;rounded=0;size=0.5;" parent="hxKvOkTSUKwzt0BQpjmr-34" vertex="1">
          <mxGeometry x="329.75" y="535" width="30" height="30" as="geometry" />
        </mxCell>
        <mxCell id="hxKvOkTSUKwzt0BQpjmr-51" value="ก" style="text;html=1;align=center;verticalAlign=middle;resizable=0;points=[];autosize=1;strokeColor=none;fillColor=none;fontFamily=Sarabun;fontSource=https%3A%2F%2Ffonts.googleapis.com%2Fcss%3Ffamily%3DSarabun;" parent="hxKvOkTSUKwzt0BQpjmr-34" vertex="1">
          <mxGeometry x="277.75" y="560" width="30" height="30" as="geometry" />
        </mxCell>
        <mxCell id="hxKvOkTSUKwzt0BQpjmr-52" value="ก" style="text;html=1;align=center;verticalAlign=middle;resizable=0;points=[];autosize=1;strokeColor=none;fillColor=none;fontFamily=Sarabun;fontSource=https%3A%2F%2Ffonts.googleapis.com%2Fcss%3Ffamily%3DSarabun;" parent="hxKvOkTSUKwzt0BQpjmr-34" vertex="1">
          <mxGeometry x="329.75" y="530" width="30" height="30" as="geometry" />
        </mxCell>
        <mxCell id="hxKvOkTSUKwzt0BQpjmr-53" value="&lt;div&gt;&lt;span style=&quot;font-size: 14px; text-align: left; text-wrap-mode: nowrap;&quot;&gt;กำหนดค่าของประเภทขนม&lt;/span&gt;&lt;/div&gt;&lt;div style=&quot;text-align: left;&quot;&gt;&lt;span style=&quot;font-size: 14px; text-wrap-mode: nowrap;&quot;&gt;เมล็ดทานตะวัน 13 บาท&lt;/span&gt;&lt;/div&gt;&lt;div style=&quot;text-align: left;&quot;&gt;&lt;span style=&quot;font-size: 14px; text-wrap-mode: nowrap;&quot;&gt;ถั่วแปบ 20 บาท&lt;/span&gt;&lt;/div&gt;&lt;div style=&quot;text-align: left;&quot;&gt;&lt;span style=&quot;font-size: 14px; text-wrap-mode: nowrap;&quot;&gt;จิ้นส้มหมก 15 บาท&lt;/span&gt;&lt;/div&gt;" style="rounded=0;whiteSpace=wrap;html=1;fontFamily=Sarabun;fontSource=https%3A%2F%2Ffonts.googleapis.com%2Fcss%3Ffamily%3DSarabun;" parent="hxKvOkTSUKwzt0BQpjmr-34" vertex="1">
          <mxGeometry x="188.75" y="609" width="260" height="140" as="geometry" />
        </mxCell>
        <mxCell id="hxKvOkTSUKwzt0BQpjmr-55" value="" style="endArrow=classic;html=1;rounded=0;" parent="hxKvOkTSUKwzt0BQpjmr-34" edge="1">
          <mxGeometry width="50" height="50" relative="1" as="geometry">
            <mxPoint x="315.75" y="970" as="sourcePoint" />
            <mxPoint x="315.75" y="1020" as="targetPoint" />
          </mxGeometry>
        </mxCell>
        <mxCell id="hxKvOkTSUKwzt0BQpjmr-58" value="" style="endArrow=classic;html=1;rounded=0;" parent="hxKvOkTSUKwzt0BQpjmr-34" edge="1">
          <mxGeometry width="50" height="50" relative="1" as="geometry">
            <mxPoint x="315.75" y="1150" as="sourcePoint" />
            <mxPoint x="315.75" y="1200" as="targetPoint" />
          </mxGeometry>
        </mxCell>
        <mxCell id="hxKvOkTSUKwzt0BQpjmr-59" value="&lt;font data-font-src=&quot;https://fonts.googleapis.com/css?family=Sarabun&quot; face=&quot;Sarabun&quot;&gt;ฟังก์ชัน/โมดูล&lt;/font&gt;&lt;div&gt;&lt;font face=&quot;Sarabun&quot;&gt;รวมสินค้า และ บวกราคาสินค้า&lt;/font&gt;&lt;/div&gt;" style="shape=process;whiteSpace=wrap;html=1;backgroundOutline=1;" parent="hxKvOkTSUKwzt0BQpjmr-34" vertex="1">
          <mxGeometry x="221.25" y="1630" width="190" height="50" as="geometry" />
        </mxCell>
        <mxCell id="hxKvOkTSUKwzt0BQpjmr-68" value="" style="endArrow=classic;html=1;rounded=0;" parent="hxKvOkTSUKwzt0BQpjmr-34" edge="1">
          <mxGeometry width="50" height="50" relative="1" as="geometry">
            <mxPoint x="319.58" y="1560" as="sourcePoint" />
            <mxPoint x="319.58" y="1610" as="targetPoint" />
          </mxGeometry>
        </mxCell>
        <mxCell id="hxKvOkTSUKwzt0BQpjmr-69" value="รับข้อมูลสินค้าที่ลูกค้าเลือก" style="shape=parallelogram;perimeter=parallelogramPerimeter;whiteSpace=wrap;html=1;fixedSize=1;" parent="hxKvOkTSUKwzt0BQpjmr-34" vertex="1">
          <mxGeometry x="168.75" y="1040" width="295" height="90" as="geometry" />
        </mxCell>
        <mxCell id="hxKvOkTSUKwzt0BQpjmr-70" value="เก็บข้อมูลสินค้าที่ลูกค้าเลือก" style="rounded=0;whiteSpace=wrap;html=1;" parent="hxKvOkTSUKwzt0BQpjmr-34" vertex="1">
          <mxGeometry x="196.25" y="1220" width="240" height="80" as="geometry" />
        </mxCell>
        <mxCell id="hxKvOkTSUKwzt0BQpjmr-71" value="ต้องการเลือกสินค้าเพิ่มไหม" style="rhombus;whiteSpace=wrap;html=1;" parent="hxKvOkTSUKwzt0BQpjmr-34" vertex="1">
          <mxGeometry x="221.25" y="1384" width="190" height="150" as="geometry" />
        </mxCell>
        <mxCell id="hxKvOkTSUKwzt0BQpjmr-72" value="" style="endArrow=classic;html=1;rounded=0;" parent="hxKvOkTSUKwzt0BQpjmr-34" edge="1">
          <mxGeometry width="50" height="50" relative="1" as="geometry">
            <mxPoint x="315.75" y="1320" as="sourcePoint" />
            <mxPoint x="315.75" y="1370" as="targetPoint" />
          </mxGeometry>
        </mxCell>
        <mxCell id="hxKvOkTSUKwzt0BQpjmr-77" value="ใช่" style="text;html=1;align=center;verticalAlign=middle;whiteSpace=wrap;rounded=0;" parent="hxKvOkTSUKwzt0BQpjmr-34" vertex="1">
          <mxGeometry x="411.25" y="1420" width="60" height="30" as="geometry" />
        </mxCell>
        <mxCell id="hxKvOkTSUKwzt0BQpjmr-78" value="ไม่ใช่" style="text;html=1;align=center;verticalAlign=middle;whiteSpace=wrap;rounded=0;" parent="hxKvOkTSUKwzt0BQpjmr-34" vertex="1">
          <mxGeometry x="327.25" y="1550" width="60" height="30" as="geometry" />
        </mxCell>
        <mxCell id="hxKvOkTSUKwzt0BQpjmr-80" value="แสดงสินค้า" style="strokeWidth=2;html=1;shape=mxgraph.flowchart.display;whiteSpace=wrap;" parent="hxKvOkTSUKwzt0BQpjmr-34" vertex="1">
          <mxGeometry x="206.25" y="850" width="220" height="90" as="geometry" />
        </mxCell>
        <mxCell id="hxKvOkTSUKwzt0BQpjmr-81" value="" style="endArrow=classic;html=1;rounded=0;" parent="hxKvOkTSUKwzt0BQpjmr-34" edge="1">
          <mxGeometry width="50" height="50" relative="1" as="geometry">
            <mxPoint x="318.33" y="770" as="sourcePoint" />
            <mxPoint x="318.33" y="820" as="targetPoint" />
          </mxGeometry>
        </mxCell>
        <mxCell id="hxKvOkTSUKwzt0BQpjmr-82" value="" style="endArrow=classic;html=1;rounded=0;" parent="hxKvOkTSUKwzt0BQpjmr-34" edge="1">
          <mxGeometry width="50" height="50" relative="1" as="geometry">
            <mxPoint x="318.33" y="1710" as="sourcePoint" />
            <mxPoint x="318.33" y="1760" as="targetPoint" />
          </mxGeometry>
        </mxCell>
        <mxCell id="hxKvOkTSUKwzt0BQpjmr-83" value="แสดงจำสินค้า ประเภทสินค้า ราคาสินค้า และรวมราคาสินค้าที่ต้องจ่าย" style="strokeWidth=2;html=1;shape=mxgraph.flowchart.display;whiteSpace=wrap;" parent="hxKvOkTSUKwzt0BQpjmr-34" vertex="1">
          <mxGeometry x="186.88" y="1770" width="266.25" height="100" as="geometry" />
        </mxCell>
        <mxCell id="hxKvOkTSUKwzt0BQpjmr-84" value="&lt;div style=&quot;text-align: left;&quot;&gt;&lt;span style=&quot;font-size: 14px; text-wrap-mode: nowrap;&quot;&gt;กำหนดเงินทอนในตู้ตะพาบลอยมีเหรียญไรบ้างแบงค์อะไรบ้าง&lt;/span&gt;&lt;/div&gt;&lt;div style=&quot;text-align: left;&quot;&gt;&lt;span style=&quot;font-size: 14px; text-wrap-mode: nowrap;&quot;&gt;กำหนดสินค้าทั้งหมดที่ขายในตะพาบลอย&lt;/span&gt;&lt;/div&gt;" style="rounded=0;whiteSpace=wrap;html=1;fontFamily=Sarabun;fontSource=https%3A%2F%2Ffonts.googleapis.com%2Fcss%3Ffamily%3DSarabun;" parent="hxKvOkTSUKwzt0BQpjmr-34" vertex="1">
          <mxGeometry x="138.75" y="140" width="360" height="140" as="geometry" />
        </mxCell>
        <mxCell id="hxKvOkTSUKwzt0BQpjmr-85" value="" style="endArrow=classic;html=1;rounded=0;" parent="hxKvOkTSUKwzt0BQpjmr-34" edge="1">
          <mxGeometry width="50" height="50" relative="1" as="geometry">
            <mxPoint x="319.58" y="300" as="sourcePoint" />
            <mxPoint x="319.58" y="350" as="targetPoint" />
          </mxGeometry>
        </mxCell>
        <mxCell id="hxKvOkTSUKwzt0BQpjmr-86" value="" style="endArrow=classic;html=1;rounded=0;" parent="hxKvOkTSUKwzt0BQpjmr-34" edge="1">
          <mxGeometry width="50" height="50" relative="1" as="geometry">
            <mxPoint x="319.58" y="1880" as="sourcePoint" />
            <mxPoint x="319.58" y="1930" as="targetPoint" />
          </mxGeometry>
        </mxCell>
        <mxCell id="hxKvOkTSUKwzt0BQpjmr-87" value="&lt;div style=&quot;text-align: left;&quot;&gt;&lt;span style=&quot;font-size: 14px; text-wrap-mode: nowrap;&quot;&gt;ราคาทั้งหมดที่ต้องจ่าย&lt;/span&gt;&lt;/div&gt;" style="rounded=0;whiteSpace=wrap;html=1;fontFamily=Sarabun;fontSource=https%3A%2F%2Ffonts.googleapis.com%2Fcss%3Ffamily%3DSarabun;" parent="hxKvOkTSUKwzt0BQpjmr-34" vertex="1">
          <mxGeometry x="148.75" y="1940" width="340" height="70" as="geometry" />
        </mxCell>
        <mxCell id="hxKvOkTSUKwzt0BQpjmr-88" value="จ่ายเงินสินค้าครบหรือไม่" style="rhombus;whiteSpace=wrap;html=1;" parent="hxKvOkTSUKwzt0BQpjmr-34" vertex="1">
          <mxGeometry x="225.01" y="2360" width="190" height="150" as="geometry" />
        </mxCell>
        <mxCell id="hxKvOkTSUKwzt0BQpjmr-91" value="&lt;div style=&quot;text-align: left;&quot;&gt;&lt;span style=&quot;font-size: 14px; text-wrap-mode: nowrap;&quot;&gt;จ่ายเงิน&lt;/span&gt;&lt;/div&gt;" style="rounded=0;whiteSpace=wrap;html=1;fontFamily=Sarabun;fontSource=https%3A%2F%2Ffonts.googleapis.com%2Fcss%3Ffamily%3DSarabun;" parent="hxKvOkTSUKwzt0BQpjmr-34" vertex="1">
          <mxGeometry x="150.01" y="2210" width="340" height="70" as="geometry" />
        </mxCell>
        <mxCell id="hxKvOkTSUKwzt0BQpjmr-92" value="" style="endArrow=classic;html=1;rounded=0;" parent="hxKvOkTSUKwzt0BQpjmr-34" edge="1">
          <mxGeometry width="50" height="50" relative="1" as="geometry">
            <mxPoint x="319.57" y="2300" as="sourcePoint" />
            <mxPoint x="319.57" y="2350" as="targetPoint" />
          </mxGeometry>
        </mxCell>
        <mxCell id="hxKvOkTSUKwzt0BQpjmr-94" value="ไม่" style="text;html=1;align=center;verticalAlign=middle;whiteSpace=wrap;rounded=0;" parent="hxKvOkTSUKwzt0BQpjmr-34" vertex="1">
          <mxGeometry x="376.25" y="2378" width="60" height="30" as="geometry" />
        </mxCell>
        <mxCell id="hxKvOkTSUKwzt0BQpjmr-95" value="ครบ" style="text;html=1;align=center;verticalAlign=middle;whiteSpace=wrap;rounded=0;" parent="hxKvOkTSUKwzt0BQpjmr-34" vertex="1">
          <mxGeometry x="340" y="2490" width="60" height="30" as="geometry" />
        </mxCell>
        <mxCell id="hxKvOkTSUKwzt0BQpjmr-98" value="ราคาทั้งหมดที่ต้องจ่าย" style="strokeWidth=2;html=1;shape=mxgraph.flowchart.display;whiteSpace=wrap;" parent="hxKvOkTSUKwzt0BQpjmr-34" vertex="1">
          <mxGeometry x="260.01" y="2060" width="107.5" height="60" as="geometry" />
        </mxCell>
        <mxCell id="hxKvOkTSUKwzt0BQpjmr-99" value="" style="endArrow=classic;html=1;rounded=0;fontSize=12;startSize=8;endSize=8;curved=1;" parent="hxKvOkTSUKwzt0BQpjmr-34" edge="1">
          <mxGeometry width="50" height="50" relative="1" as="geometry">
            <mxPoint x="320" y="2170" as="sourcePoint" />
            <mxPoint x="319.71" y="2200" as="targetPoint" />
          </mxGeometry>
        </mxCell>
        <mxCell id="hxKvOkTSUKwzt0BQpjmr-107" value="" style="ellipse;whiteSpace=wrap;html=1;aspect=fixed;" parent="hxKvOkTSUKwzt0BQpjmr-34" vertex="1">
          <mxGeometry x="308.75" y="80" width="20" height="20" as="geometry" />
        </mxCell>
        <mxCell id="hxKvOkTSUKwzt0BQpjmr-108" value="" style="endArrow=classic;html=1;rounded=0;" parent="hxKvOkTSUKwzt0BQpjmr-34" edge="1">
          <mxGeometry width="50" height="50" relative="1" as="geometry">
            <mxPoint x="520" y="90" as="sourcePoint" />
            <mxPoint x="350" y="90" as="targetPoint" />
          </mxGeometry>
        </mxCell>
        <mxCell id="hxKvOkTSUKwzt0BQpjmr-109" value="" style="endArrow=none;html=1;rounded=0;fontSize=12;startSize=8;endSize=8;curved=1;" parent="hxKvOkTSUKwzt0BQpjmr-34" edge="1">
          <mxGeometry width="50" height="50" relative="1" as="geometry">
            <mxPoint x="430" y="1460" as="sourcePoint" />
            <mxPoint x="521.25" y="1460" as="targetPoint" />
          </mxGeometry>
        </mxCell>
        <mxCell id="hxKvOkTSUKwzt0BQpjmr-110" value="" style="endArrow=none;html=1;rounded=0;fontSize=12;startSize=8;endSize=8;curved=1;" parent="hxKvOkTSUKwzt0BQpjmr-34" edge="1">
          <mxGeometry width="50" height="50" relative="1" as="geometry">
            <mxPoint x="426.25" y="2440" as="sourcePoint" />
            <mxPoint x="520" y="2440" as="targetPoint" />
          </mxGeometry>
        </mxCell>
        <mxCell id="hxKvOkTSUKwzt0BQpjmr-111" value="" style="endArrow=none;html=1;rounded=0;fontSize=12;startSize=8;endSize=8;curved=1;" parent="hxKvOkTSUKwzt0BQpjmr-34" edge="1">
          <mxGeometry width="50" height="50" relative="1" as="geometry">
            <mxPoint x="520" y="2440" as="sourcePoint" />
            <mxPoint x="520" y="2150" as="targetPoint" />
          </mxGeometry>
        </mxCell>
        <mxCell id="hxKvOkTSUKwzt0BQpjmr-112" value="" style="endArrow=classic;html=1;rounded=0;fontSize=12;startSize=8;endSize=8;curved=1;" parent="hxKvOkTSUKwzt0BQpjmr-34" edge="1">
          <mxGeometry width="50" height="50" relative="1" as="geometry">
            <mxPoint x="519.75" y="2150" as="sourcePoint" />
            <mxPoint x="359.75" y="2150" as="targetPoint" />
          </mxGeometry>
        </mxCell>
        <mxCell id="hxKvOkTSUKwzt0BQpjmr-90" value="" style="endArrow=classic;html=1;rounded=0;" parent="hxKvOkTSUKwzt0BQpjmr-34" edge="1">
          <mxGeometry width="50" height="50" relative="1" as="geometry">
            <mxPoint x="319.8" y="2020" as="sourcePoint" />
            <mxPoint x="320" y="2050" as="targetPoint" />
          </mxGeometry>
        </mxCell>
        <mxCell id="hxKvOkTSUKwzt0BQpjmr-114" value="" style="ellipse;whiteSpace=wrap;html=1;aspect=fixed;" parent="hxKvOkTSUKwzt0BQpjmr-34" vertex="1">
          <mxGeometry x="309.75" y="2140" width="20" height="20" as="geometry" />
        </mxCell>
        <mxCell id="hxKvOkTSUKwzt0BQpjmr-96" value="" style="endArrow=classic;html=1;rounded=0;fontSize=12;startSize=8;endSize=8;curved=1;" parent="hxKvOkTSUKwzt0BQpjmr-34" edge="1">
          <mxGeometry width="50" height="50" relative="1" as="geometry">
            <mxPoint x="319.65" y="2520" as="sourcePoint" />
            <mxPoint x="319.65" y="2550" as="targetPoint" />
          </mxGeometry>
        </mxCell>
        <mxCell id="SZXfnsuvj6eetS7_WlyC-2" value="จ่ายเงินสินค้าเกินหรือไม่" style="rhombus;whiteSpace=wrap;html=1;" vertex="1" parent="hxKvOkTSUKwzt0BQpjmr-34">
          <mxGeometry x="224.75" y="2570" width="190" height="150" as="geometry" />
        </mxCell>
        <mxCell id="SZXfnsuvj6eetS7_WlyC-3" value="เกิน" style="text;html=1;align=center;verticalAlign=middle;whiteSpace=wrap;rounded=0;" vertex="1" parent="hxKvOkTSUKwzt0BQpjmr-34">
          <mxGeometry x="329.75" y="2710" width="60" height="30" as="geometry" />
        </mxCell>
        <mxCell id="SZXfnsuvj6eetS7_WlyC-4" value="ไม่เกิน" style="text;html=1;align=center;verticalAlign=middle;whiteSpace=wrap;rounded=0;" vertex="1" parent="hxKvOkTSUKwzt0BQpjmr-34">
          <mxGeometry x="411.25" y="2590" width="60" height="30" as="geometry" />
        </mxCell>
        <mxCell id="SZXfnsuvj6eetS7_WlyC-5" value="คำนวณเกินมากี่บาท จำนวนเงินที่ต้องทอน" style="rounded=0;whiteSpace=wrap;html=1;" vertex="1" parent="hxKvOkTSUKwzt0BQpjmr-34">
          <mxGeometry x="196.25" y="2774" width="249.99" height="93" as="geometry" />
        </mxCell>
        <mxCell id="SZXfnsuvj6eetS7_WlyC-6" value="" style="endArrow=classic;html=1;rounded=0;fontSize=12;startSize=8;endSize=8;curved=1;" edge="1" parent="hxKvOkTSUKwzt0BQpjmr-34">
          <mxGeometry width="50" height="50" relative="1" as="geometry">
            <mxPoint x="319.39" y="2730" as="sourcePoint" />
            <mxPoint x="319.39" y="2760" as="targetPoint" />
          </mxGeometry>
        </mxCell>
        <mxCell id="SZXfnsuvj6eetS7_WlyC-7" value="รับเงินทอน" style="strokeWidth=2;html=1;shape=mxgraph.flowchart.display;whiteSpace=wrap;" vertex="1" parent="hxKvOkTSUKwzt0BQpjmr-34">
          <mxGeometry x="262.5" y="2910" width="107.5" height="60" as="geometry" />
        </mxCell>
        <mxCell id="SZXfnsuvj6eetS7_WlyC-8" value="" style="endArrow=classic;html=1;rounded=0;fontSize=12;startSize=8;endSize=8;curved=1;" edge="1" parent="hxKvOkTSUKwzt0BQpjmr-34">
          <mxGeometry width="50" height="50" relative="1" as="geometry">
            <mxPoint x="320.89" y="2880" as="sourcePoint" />
            <mxPoint x="320.89" y="2910" as="targetPoint" />
          </mxGeometry>
        </mxCell>
        <mxCell id="SZXfnsuvj6eetS7_WlyC-9" value="" style="endArrow=classic;html=1;rounded=0;fontSize=12;startSize=8;endSize=8;curved=1;" edge="1" parent="hxKvOkTSUKwzt0BQpjmr-34">
          <mxGeometry width="50" height="50" relative="1" as="geometry">
            <mxPoint x="321" y="3028" as="sourcePoint" />
            <mxPoint x="320.89" y="3078" as="targetPoint" />
          </mxGeometry>
        </mxCell>
        <mxCell id="hxKvOkTSUKwzt0BQpjmr-36" value="&lt;font face=&quot;Sarabun&quot;&gt;สิ้นสุด&lt;/font&gt;" style="ellipse;whiteSpace=wrap;html=1;" parent="hxKvOkTSUKwzt0BQpjmr-34" vertex="1">
          <mxGeometry x="258.13" y="3498" width="130" height="30" as="geometry" />
        </mxCell>
        <mxCell id="hxKvOkTSUKwzt0BQpjmr-97" value="รับสินค้า" style="strokeWidth=2;html=1;shape=mxgraph.flowchart.display;whiteSpace=wrap;" parent="hxKvOkTSUKwzt0BQpjmr-34" vertex="1">
          <mxGeometry x="266.88" y="3088" width="107.5" height="60" as="geometry" />
        </mxCell>
        <mxCell id="hxKvOkTSUKwzt0BQpjmr-102" value="" style="endArrow=classic;html=1;rounded=0;fontSize=12;startSize=8;endSize=8;curved=1;" parent="hxKvOkTSUKwzt0BQpjmr-34" edge="1">
          <mxGeometry width="50" height="50" relative="1" as="geometry">
            <mxPoint x="319.39" y="3168" as="sourcePoint" />
            <mxPoint x="319.39" y="3198" as="targetPoint" />
          </mxGeometry>
        </mxCell>
        <mxCell id="hxKvOkTSUKwzt0BQpjmr-103" value="ตรวจดูสินค้าไหนเหลือบ้างถ้าไม่มีแล้วให้ขึ้นหมดและไม่สามารถซื้อได้" style="rounded=0;whiteSpace=wrap;html=1;" parent="hxKvOkTSUKwzt0BQpjmr-34" vertex="1">
          <mxGeometry x="264.39" y="3218" width="120" height="60" as="geometry" />
        </mxCell>
        <mxCell id="hxKvOkTSUKwzt0BQpjmr-104" value="" style="endArrow=classic;html=1;rounded=0;fontSize=12;startSize=8;endSize=8;curved=1;" parent="hxKvOkTSUKwzt0BQpjmr-34" edge="1">
          <mxGeometry width="50" height="50" relative="1" as="geometry">
            <mxPoint x="318.39" y="3288" as="sourcePoint" />
            <mxPoint x="318.39" y="3318" as="targetPoint" />
          </mxGeometry>
        </mxCell>
        <mxCell id="hxKvOkTSUKwzt0BQpjmr-105" value="คำนวณยอดเงินในตู้&lt;div&gt;โดยเงินทอนที่ตั้งไว้+เงินที่ขายสินค้าได้และเงินทอนเหลืออะไรบ้างเหรียญต่างๆเหลือเท่าไหร่ แบงค์เหลือเท่าไหร่ อะไรบ้าง&lt;/div&gt;" style="rounded=0;whiteSpace=wrap;html=1;" parent="hxKvOkTSUKwzt0BQpjmr-34" vertex="1">
          <mxGeometry x="196.25" y="3328" width="249.99" height="93" as="geometry" />
        </mxCell>
        <mxCell id="hxKvOkTSUKwzt0BQpjmr-106" value="" style="endArrow=classic;html=1;rounded=0;fontSize=12;startSize=8;endSize=8;curved=1;" parent="hxKvOkTSUKwzt0BQpjmr-34" edge="1">
          <mxGeometry width="50" height="50" relative="1" as="geometry">
            <mxPoint x="318.39" y="3445" as="sourcePoint" />
            <mxPoint x="318.39" y="3475" as="targetPoint" />
          </mxGeometry>
        </mxCell>
        <mxCell id="SZXfnsuvj6eetS7_WlyC-10" value="" style="endArrow=none;html=1;rounded=0;fontSize=12;startSize=8;endSize=8;curved=1;" edge="1" parent="hxKvOkTSUKwzt0BQpjmr-34">
          <mxGeometry width="50" height="50" relative="1" as="geometry">
            <mxPoint x="438.75" y="2640" as="sourcePoint" />
            <mxPoint x="520" y="2640" as="targetPoint" />
          </mxGeometry>
        </mxCell>
        <mxCell id="SZXfnsuvj6eetS7_WlyC-11" value="" style="endArrow=none;html=1;rounded=0;fontSize=12;startSize=8;endSize=8;curved=1;" edge="1" parent="hxKvOkTSUKwzt0BQpjmr-34">
          <mxGeometry width="50" height="50" relative="1" as="geometry">
            <mxPoint x="521" y="3000" as="sourcePoint" />
            <mxPoint x="521.25" y="2640" as="targetPoint" />
          </mxGeometry>
        </mxCell>
        <mxCell id="SZXfnsuvj6eetS7_WlyC-12" value="" style="endArrow=classic;html=1;rounded=0;fontSize=12;startSize=8;endSize=8;curved=1;" edge="1" parent="hxKvOkTSUKwzt0BQpjmr-34">
          <mxGeometry width="50" height="50" relative="1" as="geometry">
            <mxPoint x="520" y="3000" as="sourcePoint" />
            <mxPoint x="370" y="3000" as="targetPoint" />
          </mxGeometry>
        </mxCell>
        <mxCell id="SZXfnsuvj6eetS7_WlyC-15" value="" style="ellipse;whiteSpace=wrap;html=1;aspect=fixed;" vertex="1" parent="hxKvOkTSUKwzt0BQpjmr-34">
          <mxGeometry x="308.87" y="2990" width="24.75" height="24.75" as="geometry" />
        </mxCell>
        <mxCell id="hxKvOkTSUKwzt0BQpjmr-37" value="&lt;font data-font-src=&quot;https://fonts.googleapis.com/css?family=Sarabun&quot; face=&quot;Sarabun&quot;&gt;โจทย์ปัญหา&lt;/font&gt;" style="swimlane;whiteSpace=wrap;html=1;" parent="1" vertex="1">
          <mxGeometry x="-720" y="320" width="640" height="240" as="geometry" />
        </mxCell>
        <mxCell id="hxKvOkTSUKwzt0BQpjmr-38" value="&lt;font data-font-src=&quot;https://fonts.googleapis.com/css?family=Sarabun&quot; face=&quot;Sarabun&quot; style=&quot;font-size: 14px;&quot;&gt;จงเขียน Flowchart เพื่อแสดงขั้นตอนการทำงาน ของเครื่องขายน้ำอัตโนมัติที่ชื่อว่า &quot;ตะพาบลอย&quot;&lt;br&gt;โดยจะต้องมีสินค้าดังนี้&lt;br&gt;&lt;u&gt;ประเภทน้ำ&lt;span style=&quot;white-space: pre;&quot;&gt;&#x9;&lt;/span&gt;&lt;span style=&quot;white-space: pre;&quot;&gt;&#x9;&lt;/span&gt;&lt;span style=&quot;white-space: pre;&quot;&gt;&#x9;&lt;/span&gt;&lt;span style=&quot;white-space: pre;&quot;&gt;&#x9;&lt;/span&gt;&lt;span style=&quot;white-space: pre;&quot;&gt;&#x9;&lt;/span&gt;&lt;span style=&quot;white-space: pre;&quot;&gt;&#x9;&lt;span style=&quot;white-space: pre;&quot;&gt;&#x9;&lt;/span&gt;ข&lt;/span&gt;นม&lt;/u&gt;&lt;br&gt;&lt;span style=&quot;white-space: pre;&quot;&gt;&#x9;&lt;/span&gt;- โค้ก กระป๋องละ 10 บาท&lt;span style=&quot;white-space: pre;&quot;&gt;&#x9;&lt;/span&gt;&lt;span style=&quot;white-space: pre;&quot;&gt;&#x9;&lt;/span&gt;&lt;span style=&quot;white-space: pre;&quot;&gt;&#x9;&lt;/span&gt;&lt;span style=&quot;white-space: pre;&quot;&gt;&#x9;&lt;/span&gt;- เมล็ดทานตะวัน 13 บาท&lt;br&gt;&lt;span style=&quot;white-space: pre;&quot;&gt;&#x9;&lt;/span&gt;- น้ำเขียว กระป๋องละ 12 บาท&lt;span style=&quot;white-space: pre;&quot;&gt;&#x9;&lt;/span&gt;&lt;span style=&quot;white-space: pre;&quot;&gt;&#x9;&lt;/span&gt;&lt;span style=&quot;white-space: pre;&quot;&gt;&#x9;&lt;/span&gt;- ถั่วแปบ 20 บาท&lt;br&gt;&lt;span style=&quot;white-space: pre;&quot;&gt;&#x9;&lt;/span&gt;- อเมริกาโน่ 30 บาท&lt;span style=&quot;white-space: pre;&quot;&gt;&#x9;&lt;/span&gt;&lt;span style=&quot;white-space: pre;&quot;&gt;&#x9;&lt;/span&gt;&lt;span style=&quot;white-space: pre;&quot;&gt;&#x9;&lt;/span&gt;&lt;span style=&quot;white-space: pre;&quot;&gt;&#x9;&lt;/span&gt;&lt;span style=&quot;white-space: pre;&quot;&gt;&#x9;&lt;/span&gt;- จิ้นส้มหมก 15 บาท&lt;br&gt;&lt;span style=&quot;white-space: pre;&quot;&gt;&#x9;&lt;/span&gt;- ลาเต้ หวานเจี๊ยบ 35 บาท&lt;span style=&quot;white-space: pre;&quot;&gt;&#x9;&lt;/span&gt;&lt;br&gt;&lt;br&gt;&lt;u&gt;สิ่งที่ระบบควรจะทำได้&lt;/u&gt;&lt;br&gt;&lt;span style=&quot;white-space: pre;&quot;&gt;&#x9;&lt;/span&gt;- ลูกค้าเลือกสินค้า, ระบบจะต้องรวมยอดขาย และรวมรายการสินค้าทั้งหมดที่ลูกค้าเลือก&lt;br&gt;&lt;span style=&quot;white-space: pre;&quot;&gt;&#x9;&lt;/span&gt;- สรุปยอดว่าเหลือเงินในตู้อีกเท่าไหร่ เหลือเหรียญอะไรบ้าง? ธนบัตรอะไรบ้าง? อย่างละเท่าไหร่?&lt;br&gt;&lt;br&gt;&lt;br&gt;&lt;/font&gt;" style="text;html=1;align=left;verticalAlign=middle;resizable=0;points=[];autosize=1;strokeColor=none;fillColor=none;fontSize=14;" parent="hxKvOkTSUKwzt0BQpjmr-37" vertex="1">
          <mxGeometry x="25" y="30" width="580" height="240" as="geometry" />
        </mxCell>
        <mxCell id="hxKvOkTSUKwzt0BQpjmr-74" value="" style="endArrow=none;html=1;rounded=0;fontSize=12;startSize=8;endSize=8;curved=1;" parent="1" edge="1">
          <mxGeometry width="50" height="50" relative="1" as="geometry">
            <mxPoint x="-200" y="2100" as="sourcePoint" />
            <mxPoint x="-200" y="730" as="targetPoint" />
          </mxGeometry>
        </mxCell>
      </root>
    </mxGraphModel>
  </diagram>
</mxfile>
